<?xml version="1.0" standalone="no"?>
<svg xmlns:xlink="http://www.w3.org/1999/xlink" id="wave" style="transform:rotate(180deg); transition: 0.3s" viewBox="0 0 1440 100" version="1.1" xmlns="http://www.w3.org/2000/svg"><defs><linearGradient id="sw-gradient-0" x1="0" x2="0" y1="1" y2="0"><stop stop-color="rgba(255, 249, 234, 1)" offset="0%"/><stop stop-color="rgba(255, 249, 234, 1)" offset="100%"/></linearGradient></defs><path style="transform:translate(0, 0px); opacity:1" fill="url(#sw-gradient-0)" d="M0,50L26.7,43.3C53.3,37,107,23,160,15C213.3,7,267,3,320,1.7C373.3,0,427,0,480,5C533.3,10,587,20,640,30C693.3,40,747,50,800,58.3C853.3,67,907,73,960,73.3C1013.3,73,1067,67,1120,60C1173.3,53,1227,47,1280,45C1333.3,43,1387,47,1440,53.3C1493.3,60,1547,70,1600,73.3C1653.3,77,1707,73,1760,75C1813.3,77,1867,83,1920,71.7C1973.3,60,2027,30,2080,20C2133.3,10,2187,20,2240,31.7C2293.3,43,2347,57,2400,65C2453.3,73,2507,77,2560,65C2613.3,53,2667,27,2720,23.3C2773.3,20,2827,40,2880,46.7C2933.3,53,2987,47,3040,45C3093.3,43,3147,47,3200,55C3253.3,63,3307,77,3360,81.7C3413.3,87,3467,83,3520,73.3C3573.3,63,3627,47,3680,46.7C3733.3,47,3787,63,3813,71.7L3840,80L3840,100L3813.3,100C3786.7,100,3733,100,3680,100C3626.7,100,3573,100,3520,100C3466.7,100,3413,100,3360,100C3306.7,100,3253,100,3200,100C3146.7,100,3093,100,3040,100C2986.7,100,2933,100,2880,100C2826.7,100,2773,100,2720,100C2666.7,100,2613,100,2560,100C2506.7,100,2453,100,2400,100C2346.7,100,2293,100,2240,100C2186.7,100,2133,100,2080,100C2026.7,100,1973,100,1920,100C1866.7,100,1813,100,1760,100C1706.7,100,1653,100,1600,100C1546.7,100,1493,100,1440,100C1386.7,100,1333,100,1280,100C1226.7,100,1173,100,1120,100C1066.7,100,1013,100,960,100C906.7,100,853,100,800,100C746.7,100,693,100,640,100C586.7,100,533,100,480,100C426.7,100,373,100,320,100C266.7,100,213,100,160,100C106.7,100,53,100,27,100L0,100Z"/></svg>